# xmcd
# 
# Track frame offsets:
#     150
#     17495
#     34277
#     55095
#     71127
#     86922
#     103650
#     124780
#     143425
#     161267
#     176860
# 
# Disc length: 2536
# 
# Revision: 2
# Processed by: cddbd v1.5.2PL0 Copyright (c) Steve Scherf et al.
# Submitted via: BonkEnc v1.0.8
# 
DISCID=9109e60b
DTITLE=Gaither Vocal Band - Testify
DYEAR=0
DGENRE=
TTITLE0=John the Revelator
TTITLE1=Lord Feed Your Children
TTITLE2=I Shall Wear A Crown
TTITLE3=I'm Free
TTITLE4=Born Again
TTITLE5=Build An Ark
TTITLE6=Mountains Of Mercy
TTITLE7=Home
TTITLE8=Testify
TTITLE9=Send It On Down
TTITLE10=(Whenever I Think Of You) I Thank My God
EXTD=
EXTT0=
EXTT1=
EXTT2=
EXTT3=
EXTT4=
EXTT5=
EXTT6=
EXTT7=
EXTT8=
EXTT9=
EXTT10=
PLAYORDER=
